<svg xmlns="http://www.w3.org/2000/svg" viewBox="0 0 743.2 333.69"><defs><style>.a{fill:#fbbb8d;}.a,.b,.c,.d,.e,.f,.g,.h,.i{fill-rule:evenodd;}.b{fill:#506d73;}.c{fill:#bdccd4;}.d{fill:#304045;}.e{fill:#84877e;}.f{fill:#4c4d4d;}.g{fill:#535554;}.h{fill:#6e6e6c;}</style></defs><title>wristwatch</title><path class="a" d="M347.05,48.36,241.59,10.27l-134.31.13c-.55,0-1.11,0-1.67,0s-1.21,0-1.82,0H101l0,.23c-17.21,2-30.48,14.65-30.48,30,0,9.92,5.54,18.73,14.1,24.25C67,69.21,54.35,82,54.35,97.1c0,11.65,7.55,21.91,19,28-21.51,1.8-38.21,15.05-38.21,31.14,0,9.92,6.35,18.76,16.26,24.5-16,4.8-27.31,16.52-27.31,30.23,0,15.27,14,28.08,33,31.6a24.67,24.67,0,0,0-5.79,15.54c0,15,14.87,27.6,34.64,30.52,38.36,12,75.57,22.34,113.94,32.67,6.14.75,12,.48,16.77-3l136-84.52ZM158.55,264.18,127.79,254h30.76Z"/><polygon class="a" points="676.22 44.57 334.26 48.36 339.86 233.71 676.22 252.09 676.22 44.57 676.22 44.57"/><polygon class="b" points="447.2 258.31 743.2 258.31 743.2 17.83 447.2 17.83 447.2 258.31 447.2 258.31"/><polygon class="c" points="429.03 244.78 447.2 244.78 447.2 29.69 429.03 29.69 429.03 244.78 429.03 244.78"/><polygon class="d" points="447.2 258.4 743.2 258.4 743.2 220.47 447.2 220.47 447.2 258.4 447.2 258.4"/><polygon class="e" points="429.03 256.27 447.2 256.27 447.2 222.34 429.03 222.34 429.03 256.27 429.03 256.27"/><path class="f" d="M430.29,166.74h0a2.57,2.57,0,0,1-2.57-2.57V123.66a2.57,2.57,0,0,1,2.57-2.57h0a2.57,2.57,0,0,1,2.57,2.57v40.51a2.57,2.57,0,0,1-2.57,2.57Z"/><path class="g" d="M329.44,207.67a24.47,24.47,0,0,1,2.34,1.75c6.91,8.06,7.07,16.94,7.64,24.24a25.41,25.41,0,0,0,1.05,6.9c1.22,4.16,3.9,7.12,10.55,8l1.33.17q1.08.16,2.28.26a195.7,195.7,0,0,0,39.63,0c.8-.07,1.56-.15,2.28-.26l1.33-.17c6.66-.9,9.33-3.86,10.55-8a25.47,25.47,0,0,0,1.05-6.9c.58-7.29.73-16.17,7.64-24.24a24.53,24.53,0,0,1,2.34-1.75,24.28,24.28,0,0,0,5.06-4.68c2.74-2.17,4-5.53,4.87-9.28a12,12,0,0,0,.29-2.56V94.62c0-5.11-3.81-10.19-8-12.87l-.38-.25-.3-.22a26,26,0,0,1-4-3.5c-5.28-6-7.38-14.72-8-22.78-.09-1.26-.16-2.52-.22-3.77q0-.56,0-1.1c0-7.27-3.42-10.69-10.22-11.12l-1.88-.16a247.29,247.29,0,0,0-44.44,0l-1.88.16c-6.8.43-10.22,3.85-10.22,11.12,0,.36,0,.73,0,1.1-.05,1.25-.12,2.51-.22,3.77-.82,10-3.55,20.21-12,26.28l-.3.22-.38.25c-4.15,2.68-8,7.76-8,12.87v96.54a12,12,0,0,0,.29,2.56c.85,5.93,5,10.7,9.93,14Z"/><path class="h" d="M329.44,207.67c2.9,1.91,6.4,2.07,9.84,2.07h70.09a26.62,26.62,0,0,0,9.22-1.47l.87-.6c4.9-3.25,9.08-8,9.93-14a12,12,0,0,0,.29-2.56V94.62c0-5.11-3.81-10.19-8-12.87l-.38-.25-.3-.22c-4-2.85-7.15-3.16-12.11-3.16h-69.4c-5.26,0-7.56.21-11.67,3.16l-.3.22-.38.25c-4.15,2.68-8,7.76-8,12.87v96.54a12,12,0,0,0,.29,2.56c.85,5.93,5,10.7,9.93,14Z"/><path class="i" d="M417.24,205.69a24.38,24.38,0,0,1-7.88,1.16H339.27c-2.75,0-5.9,0-8.24-1.59-4.15-2.76-7.93-6.85-8.67-12v-.1l0-.1a9.21,9.21,0,0,1-.22-1.94V94.62c0-4.09,3.33-8.31,6.63-10.44l.4-.26.07,0,.07-.05.26-.19c3.51-2.53,5.54-2.62,10-2.62h69.4c4.19,0,7,.18,10.43,2.62l.26.19.07.05.07,0,.4.26c3.3,2.13,6.63,6.35,6.63,10.44v96.54a9.15,9.15,0,0,1-.23,1.94l0,.1v.1c-.72,5-4.54,9.23-8.67,12l-.62.42Z"/></svg>